M48
;GenerationSoftware,Autodesk,EAGLE,9.6.2*%
;CreationDate,2023-12-20T17:24:51Z*%
FMAT,2
ICI,OFF
METRIC,TZ,000.000
T2C0.305
T1C3.048
%
G90
M71
T1
X176670Y115936
X2540Y10160
X41910Y10160
X47460Y10160
X86830Y10160
X92380Y10160
X131750Y10160
X137300Y10160
X176670Y10160
X2540Y23383
X41910Y23383
X47460Y23383
X86830Y23383
X92380Y23383
X131750Y23383
X137300Y23383
X176670Y23383
X2540Y36604
X41910Y36604
X47460Y36604
X86830Y36604
X92380Y36604
X131750Y36604
X137300Y36604
X176670Y36604
X2540Y49827
X41910Y49827
X47460Y49827
X86830Y49827
X92380Y49827
X131750Y49827
X137300Y49827
X176670Y49827
X2540Y63048
X41910Y63048
X47460Y63048
X86830Y63048
X92380Y63048
X131750Y63048
X137300Y63048
X176670Y63048
X2540Y76271
X41910Y76271
X47460Y76271
X86830Y76271
X92380Y76271
X131750Y76271
X137300Y76271
X176670Y76271
X2540Y89492
X41910Y89492
X47460Y89492
X86830Y89492
X92380Y89492
X131750Y89492
X137300Y89492
X176670Y89492
X2540Y102715
X41910Y102715
X47460Y102715
X86830Y102715
X92380Y102715
X131750Y102715
X137300Y102715
X176670Y102715
X2540Y115936
X41910Y115936
X47460Y115936
X86830Y115936
X92380Y115936
X131750Y115936
X137300Y115936
T2
X98730Y6350
X106350Y6350
X111430Y6350
X98730Y2540
X106350Y2540
X111430Y2540
X121590Y10160
X127940Y6350
X127940Y1270
X126289Y9017
X126289Y3810
X114478Y4572
X122352Y6223
X127940Y2540
X113970Y7493
X114351Y10414
X130480Y3429
X118542Y8890
X122098Y9398
X118643Y6279
X123241Y5207
X121971Y1143
X118542Y1397
X126670Y1270
X159271Y1397
X166891Y8128
X141110Y10160
X143650Y8890
X151270Y8890
X156350Y8890
X158890Y8890
X141110Y6350
X143650Y6350
X151270Y6350
X156350Y6350
X143650Y2540
X151270Y2540
X156350Y2540
X166510Y10160
X172860Y6350
X172860Y1270
X171209Y9017
X171209Y3810
X159398Y4572
X167272Y6223
X172860Y2540
X158890Y7493
X159271Y10414
X175400Y3429
X163462Y8890
X167018Y9398
X163563Y6279
X168161Y5207
X166891Y1143
X163462Y1397
X171590Y1270
X24511Y14620
X32131Y21351
X6350Y23383
X8890Y22113
X16510Y22113
X21590Y22113
X24130Y22113
X6350Y19573
X8890Y19573
X16510Y19573
X21590Y19573
X8890Y15763
X16510Y15763
X21590Y15763
X31750Y23383
X38100Y19573
X38100Y14493
X36449Y22240
X36449Y17033
X24638Y17795
X32512Y19446
X38100Y15763
X24130Y20716
X24511Y23637
X40640Y16652
X28702Y22113
X32258Y22621
X28804Y19502
X33401Y18430
X32131Y14366
X28702Y14620
X36830Y14493
X69431Y14620
X77051Y21351
X51270Y23383
X53810Y22113
X61430Y22113
X66510Y22113
X69050Y22113
X51270Y19573
X53810Y19573
X61430Y19573
X66510Y19573
X53810Y15763
X61430Y15763
X66510Y15763
X76670Y23383
X83020Y19573
X83020Y14493
X81369Y22240
X81369Y17033
X69558Y17795
X77432Y19446
X83020Y15763
X69050Y20716
X69431Y23637
X85560Y16652
X73622Y22113
X77178Y22621
X73724Y19502
X78321Y18430
X77051Y14366
X73622Y14620
X81750Y14493
X114351Y14620
X121971Y21351
X96190Y23383
X98730Y22113
X106350Y22113
X111430Y22113
X113970Y22113
X96190Y19573
X98730Y19573
X106350Y19573
X111430Y19573
X98730Y15763
X106350Y15763
X111430Y15763
X121590Y23383
X127940Y19573
X127940Y14493
X126289Y22240
X126289Y17033
X114478Y17795
X122352Y19446
X127940Y15763
X113970Y20716
X114351Y23637
X130480Y16652
X118542Y22113
X122098Y22621
X118643Y19502
X123241Y18430
X121971Y14366
X118542Y14620
X126670Y14493
X159271Y14620
X166891Y21351
X141110Y23383
X143650Y22113
X151270Y22113
X156350Y22113
X158890Y22113
X141110Y19573
X143650Y19573
X151270Y19573
X156350Y19573
X143650Y15763
X151270Y15763
X156350Y15763
X166510Y23383
X172860Y19573
X172860Y14493
X171209Y22240
X171209Y17033
X159398Y17795
X167272Y19446
X172860Y15763
X158890Y20716
X159271Y23637
X175400Y16652
X163462Y22113
X167018Y22621
X163563Y19502
X168161Y18430
X166891Y14366
X163462Y14620
X171590Y14493
X24511Y27841
X32131Y34572
X6350Y36604
X8890Y35334
X16510Y35334
X21590Y35334
X24130Y35334
X6350Y32794
X8890Y32794
X16510Y32794
X21590Y32794
X8890Y28984
X16510Y28984
X21590Y28984
X31750Y36604
X38100Y32794
X38100Y27714
X36449Y35461
X36449Y30254
X24638Y31016
X32512Y32667
X38100Y28984
X24130Y33937
X24511Y36858
X40640Y29873
X28702Y35334
X32258Y35842
X28804Y32723
X33401Y31651
X32131Y27587
X28702Y27841
X36830Y27714
X69431Y27841
X77051Y34572
X51270Y36604
X53810Y35334
X61430Y35334
X66510Y35334
X69050Y35334
X51270Y32794
X53810Y32794
X61430Y32794
X66510Y32794
X53810Y28984
X61430Y28984
X66510Y28984
X76670Y36604
X83020Y32794
X83020Y27714
X81369Y35461
X81369Y30254
X69558Y31016
X77432Y32667
X83020Y28984
X69050Y33937
X69431Y36858
X85560Y29873
X73622Y35334
X77178Y35842
X73724Y32723
X78321Y31651
X77051Y27587
X73622Y27841
X81750Y27714
X114351Y27841
X121971Y34572
X96190Y36604
X98730Y35334
X106350Y35334
X111430Y35334
X113970Y35334
X96190Y32794
X98730Y32794
X106350Y32794
X111430Y32794
X98730Y28984
X106350Y28984
X111430Y28984
X121590Y36604
X127940Y32794
X127940Y27714
X126289Y35461
X126289Y30254
X114478Y31016
X122352Y32667
X127940Y28984
X113970Y33937
X114351Y36858
X130480Y29873
X118542Y35334
X122098Y35842
X118643Y32723
X123241Y31651
X121971Y27587
X118542Y27841
X126670Y27714
X159271Y27841
X166891Y34572
X141110Y36604
X143650Y35334
X151270Y35334
X156350Y35334
X158890Y35334
X141110Y32794
X143650Y32794
X151270Y32794
X156350Y32794
X143650Y28984
X151270Y28984
X156350Y28984
X166510Y36604
X172860Y32794
X172860Y27714
X171209Y35461
X171209Y30254
X159398Y31016
X167272Y32667
X172860Y28984
X158890Y33937
X159271Y36858
X175400Y29873
X163462Y35334
X167018Y35842
X163563Y32723
X168161Y31651
X166891Y27587
X163462Y27841
X171590Y27714
X24511Y41064
X32131Y47795
X6350Y49827
X8890Y48557
X16510Y48557
X21590Y48557
X24130Y48557
X6350Y46017
X8890Y46017
X16510Y46017
X21590Y46017
X8890Y42207
X16510Y42207
X21590Y42207
X31750Y49827
X38100Y46017
X38100Y40937
X36449Y48684
X36449Y43477
X24638Y44239
X32512Y45890
X38100Y42207
X24130Y47160
X24511Y50081
X40640Y43096
X28702Y48557
X32258Y49065
X28804Y45946
X33401Y44874
X32131Y40810
X28702Y41064
X36830Y40937
X69431Y41064
X77051Y47795
X51270Y49827
X53810Y48557
X61430Y48557
X66510Y48557
X69050Y48557
X51270Y46017
X53810Y46017
X61430Y46017
X66510Y46017
X53810Y42207
X61430Y42207
X66510Y42207
X76670Y49827
X83020Y46017
X83020Y40937
X81369Y48684
X81369Y43477
X69558Y44239
X77432Y45890
X83020Y42207
X69050Y47160
X69431Y50081
X85560Y43096
X73622Y48557
X77178Y49065
X73724Y45946
X78321Y44874
X77051Y40810
X73622Y41064
X81750Y40937
X114351Y41064
X121971Y47795
X96190Y49827
X98730Y48557
X106350Y48557
X111430Y48557
X113970Y48557
X96190Y46017
X98730Y46017
X106350Y46017
X111430Y46017
X98730Y42207
X106350Y42207
X111430Y42207
X121590Y49827
X127940Y46017
X127940Y40937
X126289Y48684
X126289Y43477
X114478Y44239
X122352Y45890
X127940Y42207
X113970Y47160
X114351Y50081
X130480Y43096
X118542Y48557
X122098Y49065
X118643Y45946
X123241Y44874
X121971Y40810
X118542Y41064
X126670Y40937
X159271Y41064
X166891Y47795
X141110Y49827
X143650Y48557
X151270Y48557
X156350Y48557
X158890Y48557
X141110Y46017
X143650Y46017
X151270Y46017
X156350Y46017
X143650Y42207
X151270Y42207
X156350Y42207
X166510Y49827
X172860Y46017
X172860Y40937
X171209Y48684
X171209Y43477
X159398Y44239
X167272Y45890
X172860Y42207
X158890Y47160
X159271Y50081
X175400Y43096
X163462Y48557
X167018Y49065
X163563Y45946
X168161Y44874
X166891Y40810
X163462Y41064
X171590Y40937
X24511Y54285
X32131Y61016
X6350Y63048
X8890Y61778
X16510Y61778
X21590Y61778
X24130Y61778
X6350Y59238
X8890Y59238
X16510Y59238
X21590Y59238
X8890Y55428
X16510Y55428
X21590Y55428
X31750Y63048
X38100Y59238
X38100Y54158
X36449Y61905
X36449Y56698
X24638Y57460
X32512Y59111
X38100Y55428
X24130Y60381
X24511Y63302
X40640Y56317
X28702Y61778
X32258Y62286
X28804Y59167
X33401Y58095
X32131Y54031
X28702Y54285
X36830Y54158
X69431Y54285
X77051Y61016
X51270Y63048
X53810Y61778
X61430Y61778
X66510Y61778
X69050Y61778
X51270Y59238
X53810Y59238
X61430Y59238
X66510Y59238
X53810Y55428
X61430Y55428
X66510Y55428
X76670Y63048
X83020Y59238
X83020Y54158
X81369Y61905
X81369Y56698
X69558Y57460
X77432Y59111
X83020Y55428
X69050Y60381
X69431Y63302
X85560Y56317
X73622Y61778
X77178Y62286
X73724Y59167
X78321Y58095
X77051Y54031
X73622Y54285
X81750Y54158
X114351Y54285
X121971Y61016
X96190Y63048
X98730Y61778
X106350Y61778
X111430Y61778
X113970Y61778
X96190Y59238
X98730Y59238
X106350Y59238
X111430Y59238
X98730Y55428
X106350Y55428
X111430Y55428
X121590Y63048
X127940Y59238
X127940Y54158
X126289Y61905
X126289Y56698
X114478Y57460
X122352Y59111
X127940Y55428
X113970Y60381
X114351Y63302
X130480Y56317
X118542Y61778
X122098Y62286
X118643Y59167
X123241Y58095
X121971Y54031
X118542Y54285
X126670Y54158
X159271Y54285
X166891Y61016
X141110Y63048
X143650Y61778
X151270Y61778
X156350Y61778
X158890Y61778
X141110Y59238
X143650Y59238
X151270Y59238
X156350Y59238
X143650Y55428
X151270Y55428
X156350Y55428
X166510Y63048
X172860Y59238
X172860Y54158
X171209Y61905
X171209Y56698
X159398Y57460
X167272Y59111
X172860Y55428
X158890Y60381
X159271Y63302
X175400Y56317
X163462Y61778
X167018Y62286
X163563Y59167
X168161Y58095
X166891Y54031
X163462Y54285
X171590Y54158
X24511Y67508
X32131Y74239
X6350Y76271
X8890Y75001
X16510Y75001
X21590Y75001
X24130Y75001
X6350Y72461
X8890Y72461
X16510Y72461
X21590Y72461
X8890Y68651
X16510Y68651
X21590Y68651
X31750Y76271
X38100Y72461
X38100Y67381
X36449Y75128
X36449Y69921
X24638Y70683
X32512Y72334
X38100Y68651
X24130Y73604
X24511Y76525
X40640Y69540
X28702Y75001
X32258Y75509
X28804Y72390
X33401Y71318
X32131Y67254
X28702Y67508
X36830Y67381
X69431Y67508
X77051Y74239
X51270Y76271
X53810Y75001
X61430Y75001
X66510Y75001
X69050Y75001
X51270Y72461
X53810Y72461
X61430Y72461
X66510Y72461
X53810Y68651
X61430Y68651
X66510Y68651
X76670Y76271
X83020Y72461
X83020Y67381
X81369Y75128
X81369Y69921
X69558Y70683
X77432Y72334
X83020Y68651
X69050Y73604
X69431Y76525
X85560Y69540
X73622Y75001
X77178Y75509
X73724Y72390
X78321Y71318
X77051Y67254
X73622Y67508
X81750Y67381
X114351Y67508
X121971Y74239
X96190Y76271
X98730Y75001
X106350Y75001
X111430Y75001
X113970Y75001
X96190Y72461
X98730Y72461
X106350Y72461
X111430Y72461
X98730Y68651
X106350Y68651
X111430Y68651
X121590Y76271
X127940Y72461
X127940Y67381
X126289Y75128
X126289Y69921
X114478Y70683
X122352Y72334
X127940Y68651
X113970Y73604
X114351Y76525
X130480Y69540
X118542Y75001
X122098Y75509
X118643Y72390
X123241Y71318
X121971Y67254
X118542Y67508
X126670Y67381
X159271Y67508
X166891Y74239
X141110Y76271
X143650Y75001
X151270Y75001
X156350Y75001
X158890Y75001
X141110Y72461
X143650Y72461
X151270Y72461
X156350Y72461
X143650Y68651
X151270Y68651
X156350Y68651
X166510Y76271
X172860Y72461
X172860Y67381
X171209Y75128
X171209Y69921
X159398Y70683
X167272Y72334
X172860Y68651
X158890Y73604
X159271Y76525
X175400Y69540
X163462Y75001
X167018Y75509
X163563Y72390
X168161Y71318
X166891Y67254
X163462Y67508
X171590Y67381
X24511Y80729
X32131Y87460
X6350Y89492
X8890Y88222
X16510Y88222
X21590Y88222
X24130Y88222
X6350Y85682
X8890Y85682
X16510Y85682
X21590Y85682
X8890Y81872
X16510Y81872
X21590Y81872
X31750Y89492
X38100Y85682
X38100Y80602
X36449Y88349
X36449Y83142
X24638Y83904
X32512Y85555
X38100Y81872
X24130Y86825
X24511Y89746
X40640Y82761
X28702Y88222
X32258Y88730
X28804Y85611
X33401Y84539
X32131Y80475
X28702Y80729
X36830Y80602
X69431Y80729
X77051Y87460
X51270Y89492
X53810Y88222
X61430Y88222
X66510Y88222
X69050Y88222
X51270Y85682
X53810Y85682
X61430Y85682
X66510Y85682
X53810Y81872
X61430Y81872
X66510Y81872
X76670Y89492
X83020Y85682
X83020Y80602
X81369Y88349
X81369Y83142
X69558Y83904
X77432Y85555
X83020Y81872
X69050Y86825
X69431Y89746
X85560Y82761
X73622Y88222
X77178Y88730
X73724Y85611
X78321Y84539
X77051Y80475
X73622Y80729
X81750Y80602
X114351Y80729
X121971Y87460
X96190Y89492
X98730Y88222
X106350Y88222
X111430Y88222
X113970Y88222
X96190Y85682
X98730Y85682
X106350Y85682
X111430Y85682
X98730Y81872
X106350Y81872
X111430Y81872
X121590Y89492
X127940Y85682
X127940Y80602
X126289Y88349
X126289Y83142
X114478Y83904
X122352Y85555
X127940Y81872
X113970Y86825
X114351Y89746
X130480Y82761
X118542Y88222
X122098Y88730
X118643Y85611
X123241Y84539
X121971Y80475
X118542Y80729
X126670Y80602
X159271Y80729
X166891Y87460
X141110Y89492
X143650Y88222
X151270Y88222
X156350Y88222
X158890Y88222
X141110Y85682
X143650Y85682
X151270Y85682
X156350Y85682
X143650Y81872
X151270Y81872
X156350Y81872
X166510Y89492
X172860Y85682
X172860Y80602
X171209Y88349
X171209Y83142
X159398Y83904
X167272Y85555
X172860Y81872
X158890Y86825
X159271Y89746
X175400Y82761
X163462Y88222
X167018Y88730
X163563Y85611
X168161Y84539
X166891Y80475
X163462Y80729
X171590Y80602
X24511Y93952
X32131Y100683
X6350Y102715
X8890Y101445
X16510Y101445
X21590Y101445
X24130Y101445
X6350Y98905
X8890Y98905
X16510Y98905
X21590Y98905
X8890Y95095
X16510Y95095
X21590Y95095
X31750Y102715
X38100Y98905
X38100Y93825
X36449Y101572
X36449Y96365
X24638Y97127
X32512Y98778
X24511Y1397
X24130Y100048
X24511Y102969
X40640Y95984
X28702Y101445
X32258Y101953
X28804Y98834
X33401Y97762
X32131Y93698
X28702Y93952
X36830Y93825
X69431Y93952
X77051Y100683
X51270Y102715
X53810Y101445
X61430Y101445
X66510Y101445
X69050Y101445
X51270Y98905
X53810Y98905
X61430Y98905
X66510Y98905
X53810Y95095
X61430Y95095
X66510Y95095
X76670Y102715
X83020Y98905
X83020Y93825
X81369Y101572
X81369Y96365
X69558Y97127
X77432Y98778
X83020Y95095
X69050Y100048
X69431Y102969
X85560Y95984
X73622Y101445
X77178Y101953
X73724Y98834
X78321Y97762
X77051Y93698
X73622Y93952
X81750Y93825
X114351Y93952
X121971Y100683
X96190Y102715
X98730Y101445
X106350Y101445
X111430Y101445
X113970Y101445
X96190Y98905
X98730Y98905
X106350Y98905
X111430Y98905
X98730Y95095
X106350Y95095
X111430Y95095
X121590Y102715
X127940Y98905
X127940Y93825
X126289Y101572
X126289Y96365
X114478Y97127
X122352Y98778
X127940Y95095
X113970Y100048
X114351Y102969
X130480Y95984
X118542Y101445
X122098Y101953
X118643Y98834
X123241Y97762
X121971Y93698
X118542Y93952
X126670Y93825
X159271Y93952
X166891Y100683
X141110Y102715
X143650Y101445
X151270Y101445
X156350Y101445
X158890Y101445
X141110Y98905
X143650Y98905
X151270Y98905
X156350Y98905
X143650Y95095
X151270Y95095
X156350Y95095
X166510Y102715
X172860Y98905
X172860Y93825
X171209Y101572
X171209Y96365
X159398Y97127
X167272Y98778
X172860Y95095
X158890Y100048
X159271Y102969
X175400Y95984
X163462Y101445
X167018Y101953
X163563Y98834
X168161Y97762
X166891Y93698
X163462Y93952
X171590Y93825
X24511Y107173
X32131Y113904
X6350Y115936
X8890Y114666
X16510Y114666
X21590Y114666
X24130Y114666
X6350Y112126
X8890Y112126
X16510Y112126
X21590Y112126
X8890Y108316
X16510Y108316
X21590Y108316
X31750Y115936
X38100Y112126
X38100Y107046
X36449Y114793
X36449Y109586
X24638Y110348
X32512Y111999
X38100Y108316
X24130Y113269
X24511Y116190
X40640Y109205
X28702Y114666
X32258Y115174
X28804Y112055
X33401Y110983
X32131Y106919
X28702Y107173
X36830Y107046
X69431Y107173
X77051Y113904
X51270Y115936
X53810Y114666
X61430Y114666
X66510Y114666
X69050Y114666
X51270Y112126
X53810Y112126
X61430Y112126
X66510Y112126
X53810Y108316
X61430Y108316
X66510Y108316
X38100Y95095
X83020Y112126
X83020Y107046
X81369Y114793
X81369Y109586
X69558Y110348
X77432Y111999
X83020Y108316
X69050Y113269
X69431Y116190
X85560Y109205
X73622Y114666
X77178Y115174
X73724Y112055
X78321Y110983
X77051Y106919
X73622Y107173
X81750Y107046
X114351Y107173
X121971Y113904
X96190Y115936
X98730Y114666
X106350Y114666
X111430Y114666
X113970Y114666
X96190Y112126
X98730Y112126
X106350Y112126
X111430Y112126
X98730Y108316
X106350Y108316
X111430Y108316
X121590Y115936
X127940Y112126
X127940Y107046
X126289Y114793
X126289Y109586
X114478Y110348
X122352Y111999
X127940Y108316
X113970Y113269
X114351Y116190
X130480Y109205
X118542Y114666
X122098Y115174
X118643Y112055
X123241Y110983
X121971Y106919
X118542Y107173
X126670Y107046
X159271Y107173
X166891Y113904
X141110Y115936
X143650Y114666
X151270Y114666
X156350Y114666
X158890Y114666
X141110Y112126
X143650Y112126
X151270Y112126
X156350Y112126
X143650Y108316
X151270Y108316
X156350Y108316
X166510Y115936
X172860Y112126
X172860Y107046
X171209Y114793
X171209Y109586
X159398Y110348
X167272Y111999
X172860Y108316
X158890Y113269
X159271Y116190
X175400Y109205
X163462Y114666
X167018Y115174
X163563Y112055
X168161Y110983
X166891Y106919
X163462Y107173
X171590Y107046
X32131Y8128
X6350Y10160
X8890Y8890
X16510Y8890
X21590Y8890
X24130Y8890
X6350Y6350
X8890Y6350
X16510Y6350
X21590Y6350
X8890Y2540
X16510Y2540
X21590Y2540
X31750Y10160
X38100Y6350
X38100Y1270
X36449Y9017
X36449Y3810
X24638Y4572
X32512Y6223
X38100Y2540
X24130Y7493
X24511Y10414
X40640Y3429
X28702Y8890
X32258Y9398
X28804Y6279
X33401Y5207
X32131Y1143
X28702Y1397
X36830Y1270
X69431Y1397
X77051Y8128
X51270Y10160
X53810Y8890
X61430Y8890
X66510Y8890
X69050Y8890
X51270Y6350
X53810Y6350
X61430Y6350
X66510Y6350
X53810Y2540
X61430Y2540
X66510Y2540
X76670Y10160
X83020Y6350
X83020Y1270
X81369Y9017
X81369Y3810
X69558Y4572
X77432Y6223
X83020Y2540
X69050Y7493
X69431Y10414
X85560Y3429
X73622Y8890
X77178Y9398
X73724Y6279
X78321Y5207
X77051Y1143
X73622Y1397
X81750Y1270
X114351Y1397
X121971Y8128
X96190Y10160
X98730Y8890
X106350Y8890
X111430Y8890
X113970Y8890
X96190Y6350
X76670Y115936
M30