M48
;GenerationSoftware,Autodesk,EAGLE,9.6.2*%
;CreationDate,2023-12-20T20:11:53Z*%
FMAT,2
ICI,OFF
METRIC,TZ,000.000
T2C0.305
T1C3.048
%
G90
M71
T1
X176670Y115936
X2540Y10160
X41910Y10160
X47460Y10160
X86830Y10160
X92380Y10160
X131750Y10160
X137300Y10160
X176670Y10160
X2540Y23383
X41910Y23383
X47460Y23383
X86830Y23383
X92380Y23383
X131750Y23383
X137300Y23383
X176670Y23383
X2540Y36604
X41910Y36604
X47460Y36604
X86830Y36604
X92380Y36604
X131750Y36604
X137300Y36604
X176670Y36604
X2540Y49827
X41910Y49827
X47460Y49827
X86830Y49827
X92380Y49827
X131750Y49827
X137300Y49827
X176670Y49827
X2540Y63048
X41910Y63048
X47460Y63048
X86830Y63048
X92380Y63048
X131750Y63048
X137300Y63048
X176670Y63048
X2540Y76271
X41910Y76271
X47460Y76271
X86830Y76271
X92380Y76271
X131750Y76271
X137300Y76271
X176670Y76271
X2540Y89492
X41910Y89492
X47460Y89492
X86830Y89492
X92380Y89492
X131750Y89492
X137300Y89492
X176670Y89492
X2540Y102715
X41910Y102715
X47460Y102715
X86830Y102715
X92380Y102715
X131750Y102715
X137300Y102715
X176670Y102715
X2540Y115936
X41910Y115936
X47460Y115936
X86830Y115936
X92380Y115936
X131750Y115936
X137300Y115936
T2
X113970Y8890
X98730Y6350
X106350Y6350
X111430Y6350
X106350Y2540
X111430Y2540
X121590Y10160
X128448Y6477
X127940Y1270
X126289Y9017
X126289Y3810
X114478Y4572
X122352Y6223
X131496Y2286
X128575Y5334
X113970Y7493
X114351Y10414
X131369Y4318
X118542Y8890
X122098Y9398
X118643Y6279
X123241Y5207
X97968Y4318
X92380Y4318
X121971Y1143
X118542Y1397
X126670Y1270
X159271Y1397
X166891Y8128
X141110Y10160
X141872Y7112
X151270Y8890
X156350Y8890
X158890Y8890
X143650Y6350
X151270Y6350
X156350Y6350
X151270Y2540
X156350Y2540
X166510Y10160
X173368Y6477
X172860Y1270
X171209Y9017
X171209Y3810
X159398Y4572
X167272Y6223
X176416Y2286
X173495Y5334
X158890Y7493
X159271Y10414
X176289Y4318
X163462Y8890
X167018Y9398
X163563Y6279
X168161Y5207
X142888Y4318
X137300Y4318
X166891Y1143
X163462Y1397
X171590Y1270
X24511Y14620
X32131Y21351
X6350Y23383
X7112Y20335
X16510Y22113
X21590Y22113
X24130Y22113
X8890Y19573
X16510Y19573
X21590Y19573
X16510Y15763
X21590Y15763
X31750Y23383
X38608Y19700
X38100Y14493
X36449Y22240
X36449Y17033
X24638Y17795
X32512Y19446
X41656Y15509
X38735Y18557
X24130Y20716
X24511Y23637
X41529Y17541
X28702Y22113
X32258Y22621
X28804Y19502
X33401Y18430
X8128Y17541
X2540Y17541
X32131Y14366
X28702Y14620
X36830Y14493
X69431Y14620
X77051Y21351
X51270Y23383
X52032Y20335
X61430Y22113
X66510Y22113
X69050Y22113
X53810Y19573
X61430Y19573
X66510Y19573
X61430Y15763
X66510Y15763
X76670Y23383
X83528Y19700
X83020Y14493
X81369Y22240
X81369Y17033
X69558Y17795
X77432Y19446
X86576Y15509
X83655Y18557
X69050Y20716
X69431Y23637
X86449Y17541
X73622Y22113
X77178Y22621
X73724Y19502
X78321Y18430
X53048Y17541
X47460Y17541
X77051Y14366
X73622Y14620
X81750Y14493
X114351Y14620
X121971Y21351
X96190Y23383
X96952Y20335
X106350Y22113
X111430Y22113
X113970Y22113
X98730Y19573
X106350Y19573
X111430Y19573
X106350Y15763
X111430Y15763
X121590Y23383
X128448Y19700
X127940Y14493
X126289Y22240
X126289Y17033
X114478Y17795
X122352Y19446
X131496Y15509
X128575Y18557
X113970Y20716
X114351Y23637
X131369Y17541
X118542Y22113
X122098Y22621
X118643Y19502
X123241Y18430
X97968Y17541
X92380Y17541
X121971Y14366
X118542Y14620
X126670Y14493
X159271Y14620
X166891Y21351
X141110Y23383
X141872Y20335
X151270Y22113
X156350Y22113
X158890Y22113
X143650Y19573
X151270Y19573
X156350Y19573
X151270Y15763
X156350Y15763
X166510Y23383
X173368Y19700
X172860Y14493
X171209Y22240
X171209Y17033
X159398Y17795
X167272Y19446
X176416Y15509
X173495Y18557
X158890Y20716
X159271Y23637
X176289Y17541
X163462Y22113
X167018Y22621
X163563Y19502
X168161Y18430
X142888Y17541
X137300Y17541
X166891Y14366
X163462Y14620
X171590Y14493
X24511Y27841
X32131Y34572
X6350Y36604
X7112Y33556
X16510Y35334
X21590Y35334
X24130Y35334
X8890Y32794
X16510Y32794
X21590Y32794
X16510Y28984
X21590Y28984
X31750Y36604
X38608Y32921
X38100Y27714
X36449Y35461
X36449Y30254
X24638Y31016
X32512Y32667
X41656Y28730
X38735Y31778
X24130Y33937
X24511Y36858
X41529Y30762
X28702Y35334
X32258Y35842
X28804Y32723
X33401Y31651
X8128Y30762
X2540Y30762
X32131Y27587
X28702Y27841
X36830Y27714
X69431Y27841
X77051Y34572
X51270Y36604
X52032Y33556
X61430Y35334
X66510Y35334
X69050Y35334
X53810Y32794
X61430Y32794
X66510Y32794
X61430Y28984
X66510Y28984
X76670Y36604
X83528Y32921
X83020Y27714
X81369Y35461
X81369Y30254
X69558Y31016
X77432Y32667
X86576Y28730
X83655Y31778
X69050Y33937
X69431Y36858
X86449Y30762
X73622Y35334
X77178Y35842
X73724Y32723
X78321Y31651
X53048Y30762
X47460Y30762
X77051Y27587
X73622Y27841
X81750Y27714
X114351Y27841
X121971Y34572
X96190Y36604
X96952Y33556
X106350Y35334
X111430Y35334
X113970Y35334
X98730Y32794
X106350Y32794
X111430Y32794
X106350Y28984
X111430Y28984
X121590Y36604
X128448Y32921
X127940Y27714
X126289Y35461
X126289Y30254
X114478Y31016
X122352Y32667
X131496Y28730
X128575Y31778
X113970Y33937
X114351Y36858
X131369Y30762
X118542Y35334
X122098Y35842
X118643Y32723
X123241Y31651
X97968Y30762
X92380Y30762
X121971Y27587
X118542Y27841
X126670Y27714
X159271Y27841
X166891Y34572
X141110Y36604
X141872Y33556
X151270Y35334
X156350Y35334
X158890Y35334
X143650Y32794
X151270Y32794
X156350Y32794
X151270Y28984
X156350Y28984
X166510Y36604
X173368Y32921
X172860Y27714
X171209Y35461
X171209Y30254
X159398Y31016
X167272Y32667
X176416Y28730
X173495Y31778
X158890Y33937
X159271Y36858
X176289Y30762
X163462Y35334
X167018Y35842
X163563Y32723
X168161Y31651
X142888Y30762
X137300Y30762
X166891Y27587
X163462Y27841
X171590Y27714
X24511Y41064
X32131Y47795
X6350Y49827
X7112Y46779
X16510Y48557
X21590Y48557
X24130Y48557
X8890Y46017
X16510Y46017
X21590Y46017
X16510Y42207
X21590Y42207
X31750Y49827
X38608Y46144
X38100Y40937
X36449Y48684
X36449Y43477
X24638Y44239
X32512Y45890
X41656Y41953
X38735Y45001
X24130Y47160
X24511Y50081
X41529Y43985
X28702Y48557
X32258Y49065
X28804Y45946
X33401Y44874
X8128Y43985
X2540Y43985
X32131Y40810
X28702Y41064
X36830Y40937
X69431Y41064
X77051Y47795
X51270Y49827
X52032Y46779
X61430Y48557
X66510Y48557
X69050Y48557
X53810Y46017
X61430Y46017
X66510Y46017
X61430Y42207
X66510Y42207
X76670Y49827
X83528Y46144
X83020Y40937
X81369Y48684
X81369Y43477
X69558Y44239
X77432Y45890
X86576Y41953
X83655Y45001
X69050Y47160
X69431Y50081
X86449Y43985
X73622Y48557
X77178Y49065
X73724Y45946
X78321Y44874
X53048Y43985
X47460Y43985
X77051Y40810
X73622Y41064
X81750Y40937
X114351Y41064
X121971Y47795
X96190Y49827
X96952Y46779
X106350Y48557
X111430Y48557
X113970Y48557
X98730Y46017
X106350Y46017
X111430Y46017
X106350Y42207
X111430Y42207
X121590Y49827
X128448Y46144
X127940Y40937
X126289Y48684
X126289Y43477
X114478Y44239
X122352Y45890
X131496Y41953
X128575Y45001
X113970Y47160
X114351Y50081
X131369Y43985
X118542Y48557
X122098Y49065
X118643Y45946
X123241Y44874
X97968Y43985
X92380Y43985
X121971Y40810
X118542Y41064
X126670Y40937
X159271Y41064
X166891Y47795
X141110Y49827
X141872Y46779
X151270Y48557
X156350Y48557
X158890Y48557
X143650Y46017
X151270Y46017
X156350Y46017
X151270Y42207
X156350Y42207
X166510Y49827
X173368Y46144
X172860Y40937
X171209Y48684
X171209Y43477
X159398Y44239
X167272Y45890
X176416Y41953
X173495Y45001
X158890Y47160
X159271Y50081
X176289Y43985
X163462Y48557
X167018Y49065
X163563Y45946
X168161Y44874
X142888Y43985
X137300Y43985
X166891Y40810
X163462Y41064
X171590Y40937
X24511Y54285
X32131Y61016
X6350Y63048
X7112Y60000
X16510Y61778
X21590Y61778
X24130Y61778
X8890Y59238
X16510Y59238
X21590Y59238
X16510Y55428
X21590Y55428
X31750Y63048
X38608Y59365
X38100Y54158
X36449Y61905
X36449Y56698
X24638Y57460
X32512Y59111
X41656Y55174
X38735Y58222
X24130Y60381
X24511Y63302
X41529Y57206
X28702Y61778
X32258Y62286
X28804Y59167
X33401Y58095
X8128Y57206
X2540Y57206
X32131Y54031
X28702Y54285
X36830Y54158
X69431Y54285
X77051Y61016
X51270Y63048
X52032Y60000
X61430Y61778
X66510Y61778
X69050Y61778
X53810Y59238
X61430Y59238
X66510Y59238
X61430Y55428
X66510Y55428
X76670Y63048
X83528Y59365
X83020Y54158
X81369Y61905
X81369Y56698
X69558Y57460
X77432Y59111
X86576Y55174
X83655Y58222
X69050Y60381
X69431Y63302
X86449Y57206
X73622Y61778
X77178Y62286
X73724Y59167
X78321Y58095
X53048Y57206
X47460Y57206
X77051Y54031
X73622Y54285
X81750Y54158
X114351Y54285
X121971Y61016
X96190Y63048
X96952Y60000
X106350Y61778
X111430Y61778
X113970Y61778
X98730Y59238
X106350Y59238
X111430Y59238
X106350Y55428
X111430Y55428
X121590Y63048
X128448Y59365
X127940Y54158
X126289Y61905
X126289Y56698
X114478Y57460
X122352Y59111
X131496Y55174
X128575Y58222
X113970Y60381
X114351Y63302
X131369Y57206
X118542Y61778
X122098Y62286
X118643Y59167
X123241Y58095
X97968Y57206
X92380Y57206
X121971Y54031
X118542Y54285
X126670Y54158
X159271Y54285
X166891Y61016
X141110Y63048
X141872Y60000
X151270Y61778
X156350Y61778
X158890Y61778
X143650Y59238
X151270Y59238
X156350Y59238
X151270Y55428
X156350Y55428
X166510Y63048
X173368Y59365
X172860Y54158
X171209Y61905
X171209Y56698
X159398Y57460
X167272Y59111
X176416Y55174
X173495Y58222
X158890Y60381
X159271Y63302
X176289Y57206
X163462Y61778
X167018Y62286
X163563Y59167
X168161Y58095
X142888Y57206
X137300Y57206
X166891Y54031
X163462Y54285
X171590Y54158
X24511Y67508
X32131Y74239
X6350Y76271
X7112Y73223
X16510Y75001
X21590Y75001
X24130Y75001
X8890Y72461
X16510Y72461
X21590Y72461
X16510Y68651
X21590Y68651
X31750Y76271
X38608Y72588
X38100Y67381
X36449Y75128
X36449Y69921
X24638Y70683
X32512Y72334
X41656Y68397
X38735Y71445
X24130Y73604
X24511Y76525
X41529Y70429
X28702Y75001
X32258Y75509
X28804Y72390
X33401Y71318
X8128Y70429
X2540Y70429
X32131Y67254
X28702Y67508
X36830Y67381
X69431Y67508
X77051Y74239
X51270Y76271
X52032Y73223
X61430Y75001
X66510Y75001
X69050Y75001
X53810Y72461
X61430Y72461
X66510Y72461
X61430Y68651
X66510Y68651
X76670Y76271
X83528Y72588
X83020Y67381
X81369Y75128
X81369Y69921
X69558Y70683
X77432Y72334
X86576Y68397
X83655Y71445
X69050Y73604
X69431Y76525
X86449Y70429
X73622Y75001
X77178Y75509
X73724Y72390
X78321Y71318
X53048Y70429
X47460Y70429
X77051Y67254
X73622Y67508
X81750Y67381
X114351Y67508
X121971Y74239
X96190Y76271
X96952Y73223
X106350Y75001
X111430Y75001
X113970Y75001
X98730Y72461
X106350Y72461
X111430Y72461
X106350Y68651
X111430Y68651
X121590Y76271
X128448Y72588
X127940Y67381
X126289Y75128
X126289Y69921
X114478Y70683
X122352Y72334
X131496Y68397
X128575Y71445
X113970Y73604
X114351Y76525
X131369Y70429
X118542Y75001
X122098Y75509
X118643Y72390
X123241Y71318
X97968Y70429
X92380Y70429
X121971Y67254
X118542Y67508
X126670Y67381
X159271Y67508
X166891Y74239
X141110Y76271
X141872Y73223
X151270Y75001
X156350Y75001
X158890Y75001
X143650Y72461
X151270Y72461
X156350Y72461
X151270Y68651
X156350Y68651
X166510Y76271
X173368Y72588
X172860Y67381
X171209Y75128
X171209Y69921
X159398Y70683
X167272Y72334
X176416Y68397
X173495Y71445
X158890Y73604
X159271Y76525
X176289Y70429
X163462Y75001
X167018Y75509
X163563Y72390
X168161Y71318
X142888Y70429
X137300Y70429
X166891Y67254
X163462Y67508
X171590Y67381
X24511Y80729
X32131Y87460
X6350Y89492
X7112Y86444
X16510Y88222
X21590Y88222
X24130Y88222
X8890Y85682
X16510Y85682
X21590Y85682
X16510Y81872
X21590Y81872
X31750Y89492
X38608Y85809
X38100Y80602
X36449Y88349
X36449Y83142
X24638Y83904
X32512Y85555
X41656Y81618
X38735Y84666
X24130Y86825
X24511Y89746
X41529Y83650
X28702Y88222
X32258Y88730
X28804Y85611
X33401Y84539
X8128Y83650
X2540Y83650
X32131Y80475
X28702Y80729
X36830Y80602
X69431Y80729
X77051Y87460
X51270Y89492
X52032Y86444
X61430Y88222
X66510Y88222
X69050Y88222
X53810Y85682
X61430Y85682
X66510Y85682
X61430Y81872
X66510Y81872
X76670Y89492
X83528Y85809
X83020Y80602
X81369Y88349
X81369Y83142
X69558Y83904
X77432Y85555
X86576Y81618
X83655Y84666
X69050Y86825
X69431Y89746
X86449Y83650
X73622Y88222
X77178Y88730
X73724Y85611
X78321Y84539
X53048Y83650
X47460Y83650
X77051Y80475
X73622Y80729
X81750Y80602
X114351Y80729
X121971Y87460
X96190Y89492
X96952Y86444
X106350Y88222
X111430Y88222
X113970Y88222
X98730Y85682
X106350Y85682
X111430Y85682
X106350Y81872
X111430Y81872
X121590Y89492
X128448Y85809
X127940Y80602
X126289Y88349
X126289Y83142
X114478Y83904
X122352Y85555
X131496Y81618
X128575Y84666
X113970Y86825
X114351Y89746
X131369Y83650
X118542Y88222
X122098Y88730
X118643Y85611
X123241Y84539
X97968Y83650
X92380Y83650
X121971Y80475
X118542Y80729
X126670Y80602
X159271Y80729
X166891Y87460
X141110Y89492
X141872Y86444
X151270Y88222
X156350Y88222
X158890Y88222
X143650Y85682
X151270Y85682
X156350Y85682
X151270Y81872
X156350Y81872
X166510Y89492
X173368Y85809
X172860Y80602
X171209Y88349
X171209Y83142
X159398Y83904
X167272Y85555
X176416Y81618
X173495Y84666
X158890Y86825
X159271Y89746
X176289Y83650
X163462Y88222
X167018Y88730
X163563Y85611
X168161Y84539
X142888Y83650
X137300Y83650
X166891Y80475
X163462Y80729
X171590Y80602
X24511Y93952
X32131Y100683
X6350Y102715
X7112Y99667
X16510Y101445
X21590Y101445
X24130Y101445
X8890Y98905
X16510Y98905
X21590Y98905
X16510Y95095
X21590Y95095
X31750Y102715
X38608Y99032
X38100Y93825
X36449Y101572
X36449Y96365
X24638Y97127
X32512Y98778
X41656Y94841
X38735Y97889
X24511Y1397
X24511Y102969
X41529Y96873
X28702Y101445
X32258Y101953
X28804Y98834
X33401Y97762
X8128Y96873
X2540Y96873
X32131Y93698
X28702Y93952
X36830Y93825
X69431Y93952
X77051Y100683
X51270Y102715
X52032Y99667
X61430Y101445
X66510Y101445
X69050Y101445
X53810Y98905
X61430Y98905
X66510Y98905
X61430Y95095
X66510Y95095
X76670Y102715
X83528Y99032
X83020Y93825
X81369Y101572
X81369Y96365
X69558Y97127
X77432Y98778
X86576Y94841
X83655Y97889
X69050Y100048
X69431Y102969
X86449Y96873
X73622Y101445
X77178Y101953
X73724Y98834
X78321Y97762
X53048Y96873
X47460Y96873
X77051Y93698
X73622Y93952
X81750Y93825
X114351Y93952
X121971Y100683
X96190Y102715
X96952Y99667
X106350Y101445
X111430Y101445
X113970Y101445
X98730Y98905
X106350Y98905
X111430Y98905
X106350Y95095
X111430Y95095
X121590Y102715
X128448Y99032
X127940Y93825
X126289Y101572
X126289Y96365
X114478Y97127
X122352Y98778
X131496Y94841
X128575Y97889
X113970Y100048
X114351Y102969
X131369Y96873
X118542Y101445
X122098Y101953
X118643Y98834
X123241Y97762
X97968Y96873
X92380Y96873
X121971Y93698
X118542Y93952
X126670Y93825
X159271Y93952
X166891Y100683
X141110Y102715
X141872Y99667
X151270Y101445
X156350Y101445
X158890Y101445
X143650Y98905
X151270Y98905
X156350Y98905
X151270Y95095
X156350Y95095
X166510Y102715
X173368Y99032
X172860Y93825
X171209Y101572
X171209Y96365
X159398Y97127
X167272Y98778
X176416Y94841
X173495Y97889
X158890Y100048
X159271Y102969
X176289Y96873
X163462Y101445
X167018Y101953
X163563Y98834
X168161Y97762
X142888Y96873
X137300Y96873
X166891Y93698
X163462Y93952
X171590Y93825
X24511Y107173
X32131Y113904
X6350Y115936
X7112Y112888
X16510Y114666
X21590Y114666
X24130Y114666
X8890Y112126
X16510Y112126
X21590Y112126
X16510Y108316
X21590Y108316
X31750Y115936
X38608Y112253
X38100Y107046
X36449Y114793
X36449Y109586
X24638Y110348
X32512Y111999
X41656Y108062
X38735Y111110
X24130Y113269
X24511Y116190
X41529Y110094
X28702Y114666
X32258Y115174
X28804Y112055
X33401Y110983
X8128Y110094
X2540Y110094
X32131Y106919
X28702Y107173
X36830Y107046
X69431Y107173
X77051Y113904
X51270Y115936
X52032Y112888
X61430Y114666
X66510Y114666
X69050Y114666
X53810Y112126
X61430Y112126
X66510Y112126
X61430Y108316
X66510Y108316
X76670Y115936
X24130Y100048
X83020Y107046
X81369Y114793
X81369Y109586
X69558Y110348
X77432Y111999
X86576Y108062
X83655Y111110
X69050Y113269
X69431Y116190
X86449Y110094
X73622Y114666
X77178Y115174
X73724Y112055
X78321Y110983
X53048Y110094
X47460Y110094
X77051Y106919
X73622Y107173
X81750Y107046
X114351Y107173
X121971Y113904
X96190Y115936
X96952Y112888
X106350Y114666
X111430Y114666
X113970Y114666
X98730Y112126
X106350Y112126
X111430Y112126
X106350Y108316
X111430Y108316
X121590Y115936
X128448Y112253
X127940Y107046
X126289Y114793
X126289Y109586
X114478Y110348
X122352Y111999
X131496Y108062
X128575Y111110
X113970Y113269
X114351Y116190
X131369Y110094
X118542Y114666
X122098Y115174
X118643Y112055
X123241Y110983
X97968Y110094
X92380Y110094
X121971Y106919
X118542Y107173
X126670Y107046
X159271Y107173
X166891Y113904
X141110Y115936
X141872Y112888
X151270Y114666
X156350Y114666
X158890Y114666
X143650Y112126
X151270Y112126
X156350Y112126
X151270Y108316
X156350Y108316
X166510Y115936
X173368Y112253
X172860Y107046
X171209Y114793
X171209Y109586
X159398Y110348
X167272Y111999
X176416Y108062
X173495Y111110
X158890Y113269
X159271Y116190
X176289Y110094
X163462Y114666
X167018Y115174
X163563Y112055
X168161Y110983
X142888Y110094
X137300Y110094
X166891Y106919
X163462Y107173
X171590Y107046
X32131Y8128
X6350Y10160
X7112Y7112
X16510Y8890
X21590Y8890
X24130Y8890
X8890Y6350
X16510Y6350
X21590Y6350
X16510Y2540
X21590Y2540
X31750Y10160
X38608Y6477
X38100Y1270
X36449Y9017
X36449Y3810
X24638Y4572
X32512Y6223
X41656Y2286
X38735Y5334
X24130Y7493
X24511Y10414
X41529Y4318
X28702Y8890
X32258Y9398
X28804Y6279
X33401Y5207
X8128Y4318
X2540Y4318
X32131Y1143
X28702Y1397
X36830Y1270
X69431Y1397
X77051Y8128
X51270Y10160
X52032Y7112
X61430Y8890
X66510Y8890
X69050Y8890
X53810Y6350
X61430Y6350
X66510Y6350
X61430Y2540
X66510Y2540
X76670Y10160
X83528Y6477
X83020Y1270
X81369Y9017
X81369Y3810
X69558Y4572
X77432Y6223
X86576Y2286
X83655Y5334
X69050Y7493
X69431Y10414
X86449Y4318
X73622Y8890
X77178Y9398
X73724Y6279
X78321Y5207
X53048Y4318
X47460Y4318
X77051Y1143
X73622Y1397
X81750Y1270
X114351Y1397
X121971Y8128
X96190Y10160
X96952Y7112
X106350Y8890
X111430Y8890
X83528Y112253
M30